<?xml version="1.0" encoding="utf-8"?>
<!-- Generator: Adobe Illustrator 19.0.0, SVG Export Plug-In . SVG Version: 6.00 Build 0)  -->
<svg version="1.1" id="Layer_1" xmlns="http://www.w3.org/2000/svg" xmlns:xlink="http://www.w3.org/1999/xlink" x="0px" y="0px"
	 viewBox="-447 251 60 60" style="enable-background:new -447 251 60 60;" xml:space="preserve">
<style type="text/css">
	.st0{fill:#00A9E0;}
</style>
<g>
	<g>
		<path class="st0" d="M-417,281c-4.6,0-8.2-1.2-10.6-3.6c-2.6-2.5-3.9-6.1-3.9-10.9c0-4.8,1.3-8.4,3.9-10.9
			c2.5-2.4,6.1-3.6,10.6-3.6c4.6,0,8.2,1.2,10.6,3.6c2.6,2.5,3.9,6.2,3.9,10.9c0,4.8-1.3,8.4-3.9,10.9
			C-408.8,279.8-412.4,281-417,281z M-417,255.3c-3.7,0-6.5,0.9-8.3,2.7c-1.9,1.8-2.9,4.7-2.9,8.6c0,3.8,1,6.7,2.9,8.5
			c1.8,1.8,4.6,2.7,8.3,2.7c3.7,0,6.5-0.9,8.4-2.7c1.9-1.8,2.9-4.7,2.9-8.5C-405.8,259-409.4,255.3-417,255.3z"/>
	</g>
	<g>
		<g>
			<g>
				<path class="st0" d="M-392.9,310h-48.3c-0.9,0-1.7-0.7-1.7-1.7v-4.8c0-4.6,1.4-8.6,4.2-11.4c3-3.1,7.4-4.7,12.8-4.7h17.7
					c5.4,0,9.8,1.6,12.8,4.7c2.7,2.8,4.2,6.8,4.2,11.4v4.8C-391.2,309.3-392,310-392.9,310z M-439.5,306.7h45v-3.2
					c0-8-5.1-12.8-13.7-12.8h-17.7c-8.7,0-13.6,4.7-13.6,12.8V306.7z"/>
			</g>
		</g>
	</g>
</g>
</svg>
