<?xml version="1.0" encoding="utf-8"?>
<!-- Generator: Adobe Illustrator 19.0.0, SVG Export Plug-In . SVG Version: 6.00 Build 0)  -->
<svg version="1.1" id="Layer_1" xmlns="http://www.w3.org/2000/svg" xmlns:xlink="http://www.w3.org/1999/xlink" x="0px" y="0px"
	 viewBox="-447 251 60 60" style="enable-background:new -447 251 60 60;" xml:space="preserve">
<style type="text/css">
	.st0{fill:#FFFFFF;}
</style>
<g>
	<g>
		<path class="st0" d="M-426.6,290.7c-3.6,0-6.4-1-8.3-3.1c-1.8-1.9-2.7-4.6-2.7-8s0.9-6,2.7-8c1.9-2,4.7-3.1,8.3-3.1s6.4,1,8.3,3.1
			c1.8,1.9,2.7,4.6,2.7,8s-0.9,6-2.7,8C-420.3,289.6-423.1,290.7-426.6,290.7z M-426.6,271.9c-5.1,0-7.7,2.6-7.7,7.7
			c0,5.1,2.6,7.7,7.7,7.7c5.1,0,7.7-2.6,7.7-7.7C-418.9,274.5-421.5,271.9-426.6,271.9z"/>
	</g>
	<g>
		<path class="st0" d="M-408.9,310h-35.4c-0.9,0-1.7-0.7-1.7-1.7v-3.1c0-4,1-7,3.1-9.1c2.1-2.1,5.1-3.1,9.1-3.1h14.3
			c3.9,0,7,1.1,9.1,3.1c2.1,2.1,3.1,5.1,3.1,9.1v3.1C-407.3,309.2-408,310-408.9,310z M-442.7,306.7h32.1v-1.4
			c0-3.1-0.7-5.3-2.2-6.8c-1.4-1.4-3.7-2.2-6.7-2.2h-14.3c-3,0-5.3,0.7-6.7,2.2c-1.4,1.4-2.2,3.7-2.2,6.8V306.7z"/>
	</g>
	<g>
		<path class="st0" d="M-401.7,265.3c-0.7,0-1.2-0.6-1.2-1.3v-0.5c0-1.3,0.9-2.1,1.4-2.7c0.2-0.2,0.8-0.6,0.8-1.1
			c0-0.3-0.2-1.1-1-1.1s-1.2,0.7-1.2,1.1c0,0.7-0.5,1.3-1.2,1.3s-1.2-0.6-1.2-1.3c0-2.1,1.4-3.4,3.7-3.4c2.1,0,3.5,1.8,3.5,3.4
			c0,1.4-0.8,1.9-1.4,2.5c-0.3,0.3-0.9,0.7-0.9,1.3v0.5C-400.5,264.7-401,265.3-401.7,265.3z"/>
	</g>
	<g>
		<circle class="st0" cx="-401.7" cy="267.4" r="1.3"/>
	</g>
	<g>
		<path class="st0" d="M-408.9,280.2c-0.1,0-0.2,0-0.3,0c-1.2-0.2-2.2-1.4-2.2-2.6V273h-0.3c-2.6,0-4.5-2-4.5-4.8v-11.5
			c0-2.6,2.1-4.8,4.8-4.8h18.7c2.6,0,4.8,2.1,4.8,4.8v11.5c0,2.6-2.1,4.8-4.8,4.8h-9.7c-0.9,1.5-2.9,4.5-3.3,5.1
			C-406.6,279.4-407.8,280.2-408.9,280.2z M-411.5,255.3c-0.8,0-1.5,0.7-1.5,1.5v11.5c0,0.7,0.4,1.5,1.2,1.5h2
			c0.9,0,1.7,0.7,1.7,1.7v4.4c1-1.5,3.4-5.3,3.4-5.3c0.3-0.5,0.8-0.8,1.4-0.8h10.6c0.8,0,1.5-0.7,1.5-1.5v-11.5
			c0-0.8-0.7-1.5-1.5-1.5H-411.5z"/>
	</g>
</g>
</svg>
